Patient4_TMGait_0pt5_02_left_24_EMG.mot
version=1
nRows=37
nColumns=33
inDegrees=no
endheader
time	1LAddLong	2LGlutMax	3LGlutMed	4LIliopsoas	5LSemiMemb	6LBicFemLong	7LRecFem	8LVastMed	9LVastLat	10LGasMed	11LTibAnt	12lTibPost	13LPeroneusLong	14LSol	15LExtDigLong	16LFlexDigLong	17RAddLong	18RGlutMax	19RGlutMed	20RIliopsoas	21RSemiMemb	22RBicFemLong	23RRecFem	24RVastMed	25RVastLat	26RGasMed	27RTibAnt	28RTibPost	29RPeroneusLong	30RSol	31RExtDigLong	32RFlexDigLong
31.037	0.025635	0.448	-0.014191	0.008545	-0.048065	-0.004425	0.14481	0.010834	-0.12512	0.054474	-0.005493	0.04715	-0.025177	0.21439	0.011139	-0.014648	0.028229	0.10544	-0.036011	0.001678	-0.022125	0.11444	0.2504	-0.068054	0.014648	0.030823	-0.000916	0.17303	0.2063	1.0245	-0.00885	0.014648
31.038	0.04303	0.47226	-0.042877	-0.000916	0.016785	0.028992	0.049286	0.012207	-0.051422	0.21744	-0.006409	0.050354	0.21408	0.12466	-0.021057	0.016022	0.024261	0.087585	-0.085907	0.041351	-0.024719	0.11017	0.15289	-0.095367	0.015717	0.041809	-0.013275	0.13596	0.085754	-0.21103	-0.00412	0.010681
31.039	0.03479	0.51468	-0.071869	0.014496	0.019379	0.09491	-0.10483	0.016479	0.008392	0.32974	0.006256	0.054626	0.11978	0.007935	-0.08667	0.032349	0.028229	0.055389	-0.076294	0.00473	-0.024414	0.09552	0.10269	-0.16174	0.002899	0.016022	-0.000916	0.095215	0.14008	-0.93063	-0.004578	0.015106
31.04	0.016022	0.57709	-0.074005	0.011749	0.005493	0.10437	-0.17853	0.016174	0.06424	0.30411	0.021362	0.055695	0.011902	-0.1152	-0.12619	0.038605	0.024719	0.069122	-0.10483	0.010071	-0.028687	0.094604	0.089264	-0.18127	0.00824	0.002441	0.072327	-0.001984	-0.12619	-0.76096	-0.003815	0.002289
31.041	0.009766	0.6221	-0.005493	0.002899	0.021515	0.13504	-0.16312	0.010223	0.009766	0.21072	0.001984	0.050812	-0.047302	-0.072784	-0.015717	0.034943	0.023956	0.051727	-0.076447	0.021057	-0.052643	0.074921	0.10376	-0.20065	0.016327	0.00824	0.061798	-0.06012	0.25406	-0.63416	-0.00473	0.002594
31.042	0.007782	0.69595	-0.010834	0.021362	0.024261	0.1236	-0.040436	0.010071	-0.035095	0.090179	0.012054	0.049591	0.19608	-0.048676	-0.007629	0.0383	0.006714	0.042419	-0.078278	0.023346	-0.046539	0.054016	0.1239	-0.15198	-0.014191	0.005646	0.023499	-0.092316	1.0837	-0.087433	0.001984	-0.009003
31.043	0.014038	0.76035	-0.001373	-0.00412	0.042572	0.13931	0.01236	0.013275	-0.02243	-0.19653	0.003815	0.046692	0.51697	-0.051422	-0.10834	0.037689	-0.002747	0.042877	-0.024414	-0.016327	-0.048218	0.050049	0.15015	-0.031586	0.014954	0.023804	0.027008	0.025177	0.62714	-0.023651	-0.005951	0.000153
31.044	0.014648	0.77728	0	-0.014648	0.007019	0.12131	-0.033569	0.012817	-0.077209	-0.32623	0.04837	0.043335	0.089722	0.081482	-0.053406	0.038757	-0.009003	0.010223	-0.036774	-0.095978	-0.031128	0.06012	0.14618	0.029297	0.005188	0.031433	0.065613	-0.10605	-0.32105	-0.51407	-0.000916	-0.001373
31.045	0.021057	0.84122	-0.081177	-0.010223	-0.074463	-0.027313	-0.1413	0.01236	-0.045471	-0.22125	0.074768	0.050354	0.02655	0.21149	0.074615	0.034637	-0.01709	0.000153	-0.11124	-0.16113	-0.018616	0.056458	0.14969	0.011749	0.029144	0.032654	0.046234	-0.091705	-0.33264	-0.47806	-0.005188	0.006714
31.046	0.031433	0.92438	-0.051422	-0.010376	-0.049133	-0.1622	-0.20432	0.011597	0.039673	-0.090027	0.055542	0.040894	0.54565	0.28961	0.060577	0.031586	0.006561	0.023041	-0.070496	-0.11673	-0.005798	0.066833	0.17792	-0.023956	0.02533	0.027771	0.074615	-0.063019	-0.16922	-0.31982	-0.00412	0.010071
31.047	0.01297	1.0001	0.080109	0.004578	-0.056	-0.17014	-0.1326	0.009003	0.090179	-0.088501	-0.029602	0.040741	0.72327	0.29327	-0.013275	0.035248	0.031891	0.006409	0.053253	0.007019	-0.008698	0.052185	0.18784	-0.020905	0.029755	0.03479	0.094604	-0.000458	-0.86945	-0.28564	-0.006714	-0.00061
31.048	0.003204	1.0413	0.053711	-0.005188	-0.10056	-0.17181	-0.098114	0.006256	0.060577	-0.1088	-0.12253	0.021362	-0.2652	0.14587	-0.011749	0.033569	0.047455	-0.056152	0.011749	0.19653	0.002747	0.060883	0.17181	-0.005951	0.030518	0.021973	0.092316	-0.040131	-1.5398	-0.19959	-0.005951	0.001831
31.049	0.003204	1.066	-0.013733	0.013733	-0.10895	-0.050201	-0.085754	0.001984	0.003815	-0.070953	-0.075226	0.007782	-0.62561	0.012817	0.093231	0.014191	0.023956	-0.062561	-0.088196	0.19974	-0.001984	0.075531	0.18127	-0.021057	0.062561	0.023041	0.091858	-0.036926	-0.71838	-0.14694	-0.005341	-0.005646
31.05	0.006714	1.154	-0.060883	0.012512	-0.0737	0.049286	-0.10407	0.007324	-0.021057	-0.063477	0.010071	-0.005493	-0.56808	0.075226	0.31097	-0.002899	-0.020447	-0.11932	-0.074921	0.052948	-0.002441	0.062866	0.18372	-0.048523	0.029907	0.030518	0.022888	-0.011292	0.77347	0.032959	-0.00885	0.006714
31.051	0.007477	1.2437	-0.090027	-0.010376	-0.015259	0.12497	-0.16464	0.013428	-0.014801	0.056915	0.029144	-0.005951	-0.17258	-0.14603	0.27161	0.013885	-0.061951	-0.14969	-0.10056	-0.042419	0.010986	0.05661	0.22354	-0.066986	0.02533	0.034637	-0.010223	-0.0914	1.1743	0.29953	-0.005493	0.00351
31.052	0.003815	1.3651	-0.028534	-0.002747	0.021667	0.11688	-0.22034	0.023651	-0.000458	0.09079	-0.002441	-0.018463	-0.25513	-0.4039	0.036011	0.003662	-0.06485	-0.16892	-0.093842	0.003052	0.005646	0.059814	0.25436	-0.030212	0.003815	0.043945	0.000305	-0.11231	-0.01709	0.095673	-0.006561	0.01297
31.053	0.005951	1.3658	-0.050354	-0.01358	-0.009155	0.028839	-0.27008	0.018616	-0.041809	-0.092468	-0.045166	-0.014496	0.37186	-0.43137	-0.18158	0.005951	-0.068665	-0.19867	-0.068817	-0.010681	0.00473	0.051422	0.25314	-0.061188	-0.003204	0.046692	-0.021667	-0.077057	0.028992	-0.22247	-0.005188	0.003967
31.054	0.017548	1.2505	0.028229	-0.018616	-0.016174	-0.038757	-0.2388	0.001984	-0.02243	-0.17853	-0.025787	-0.019379	0.9729	-0.23056	-0.13092	-0.001831	-0.059052	-0.20477	-0.12665	-0.18295	0.012665	0.06134	0.3067	-0.04715	-0.024719	0.044403	0.030975	-0.15182	0.34927	-0.50491	-0.010071	-0.008698
31.055	0.021362	1.1407	0.10941	-0.00824	-0.011902	-0.1152	-0.21332	-0.004272	0.065613	-0.17517	0.015717	-0.011902	-0.12146	-0.10223	-0.014191	-0.002594	-0.032349	-0.23086	-0.13962	-0.15656	0.011597	0.04837	0.33325	-0.024261	-0.010071	-0.003662	0.073547	-0.020294	0.3096	-0.95627	-0.007324	-0.015869
31.056	0.012665	1.0506	0.085297	0.001526	-0.036316	-0.13001	-0.15915	0.013733	0.12177	-0.1593	0.004883	-0.008392	-0.27634	-0.07309	-0.053406	0.001221	0.003967	-0.25375	-0.17303	-0.028076	0.008545	0.036926	0.35492	0.005798	-0.016174	-0.03952	0.11337	-0.2095	-0.31387	-0.72922	-0.005798	-0.014343
31.057	-0.001221	0.93338	0.090637	0.014038	-0.029602	-0.094604	-0.12329	0.010071	0.14374	-0.16602	0.011139	-0.021057	-0.20752	-0.16022	-0.0354	-0.00412	0.03006	-0.29358	-0.092316	0.056	0.016937	0.05249	0.2417	-0.058899	-0.014801	-0.035248	0.029144	0.15793	-0.28839	-0.32272	-0.004883	-0.0177
31.058	-0.016632	0.74783	0.068665	0.02121	-0.046082	0.019073	-0.074005	0.01297	0.19318	-0.10208	0.019379	-0.014648	-0.34134	-0.00885	-0.010071	-0.003052	0.047302	-0.3125	-0.029755	0.12955	0.028992	0.049591	0.053711	-0.080261	-0.032349	-0.050659	-0.01358	0.052795	0.20523	0.041962	-0.00412	-0.012054
31.059	-0.020752	0.61844	0.054321	0.012512	-0.07843	0.12405	-0.099792	0.008698	0.31021	-0.069275	-0.010376	-0.032501	-0.26855	0.026398	-0.032654	0.002747	0.061493	-0.31464	-0.052338	0.25436	0.01709	0.01709	0.024261	-0.087128	-0.031433	-0.023651	-0.033417	-0.06546	0.51865	0.89798	0.001678	-0.007629
31.06	-0.021515	0.53711	-0.00473	0.021515	-0.042114	0.09491	-0.17059	0.003662	0.35767	0.001373	0.018311	-0.021057	-0.22629	-0.048828	0.075836	-0.005951	0.08728	-0.32196	-0.10529	0.19806	0.002899	0.001373	0.16861	-0.077667	-0.0354	0.015411	-0.006409	0.17883	0.42725	1.2419	-0.005646	0.00412
31.061	-0.010681	0.448	0.026398	0.023499	-0.032654	0.12131	-0.24887	-0.003357	0.38132	0.013275	0.025635	-0.028076	-0.24399	-0.061646	0.27374	-0.010223	0.11841	-0.3688	-0.16129	0.04837	-0.012054	-0.005188	0.24292	-0.064697	-0.028229	0.013885	0.005341	0.007629	-0.13916	1.228	-0.005035	0.009155
31.062	-0.003204	0.38696	-0.021057	-0.003662	-0.014648	0.07019	-0.1828	-0.02533	0.065002	0.051117	0.042725	-0.029144	-0.43488	0.020294	0.27649	-0.00885	0.054474	-0.35172	-0.16434	0.081482	-0.007935	-0.018921	0.20218	-0.1358	-0.007172	0.007019	0.017853	-0.065002	0.2832	0.53757	-0.007324	0.006256
31.063	0.001831	0.37811	-0.040894	0.000763	0.091248	0.01236	-0.16068	-0.0177	-0.21088	0.14435	0.035095	-0.028687	-0.30395	0.011902	0.13687	-0.00885	0.043182	-0.43594	-0.18845	0.089874	-0.020905	-0.010681	0.18585	-0.11856	0.043335	0.011139	0.033875	0.15549	0.62363	-0.041351	-0.004272	0.003815
31.064	-0.000916	0.36362	-0.041046	0.003357	0.19608	0.12146	-0.16983	-0.006409	-0.31525	0.12192	-0.002441	-0.032501	-0.22308	0.13321	0.05249	0.00351	0.01236	-0.41565	-0.18753	0.042572	-0.021057	-0.034943	0.24765	-0.076904	0.046844	0.006104	0.076141	0.19562	0.20798	-0.39887	-0.004578	0.001526
31.065	-0.002899	0.30899	-0.027466	0.003967	0.090332	0.28519	-0.10666	0.011749	-0.14572	0.010376	0.014038	-0.022125	-0.042725	0.13504	-0.079956	0.004578	0.024414	-0.44907	-0.17181	0.03418	-0.028534	-0.022583	0.2562	-0.10391	0.015259	0.005035	0.059204	0.052032	-0.061646	-0.31845	-0.006714	0.009003
31.066	-0.00885	0.26794	-0.016632	-0.008087	-0.036316	0.31693	-0.056915	0.008087	0.016327	0.036011	0.006561	-0.015717	0.39215	-0.033722	-0.2626	-0.009155	-0.007019	-0.50476	-0.16922	-0.022278	-0.03067	0.003967	0.24567	-0.11841	-0.01358	-0.003052	0.012665	-0.013275	0.10117	-0.37598	-0.00885	0.005646
31.067	-0.017242	0.18433	-0.095062	0.000153	-0.054169	0.32669	-0.0737	-0.00473	0.10025	0.097809	0.015564	-0.010529	0.30731	-0.035095	-0.17517	-0.025024	-0.052795	-0.56732	-0.16586	0.000305	-0.040741	-0.007629	0.2034	-0.067444	-0.002747	0.018616	-0.009308	-0.044098	0.77225	-0.32654	-0.008545	0.005188
31.068	-0.00412	0.12039	-0.11688	0.003204	0.000305	0.30884	-0.065918	-0.011749	-0.040436	0.10254	0.000763	-0.020599	0.42893	-0.03067	-0.057678	-0.013885	-0.075989	-0.59067	-0.14358	-0.028229	-0.033875	-0.005646	0.18433	-0.055389	-0.000305	0.019379	0.025635	-0.035858	0.29541	-0.32761	-0.005341	0.002441
31.069	-0.019684	0.1181	-0.065918	-0.005798	-0.020905	0.27664	-0.03952	-0.014496	-0.18143	0.071411	-0.068512	-0.0177	0.24612	-0.095062	0.030365	-0.010529	-0.051422	-0.5542	-0.14633	-0.063477	-0.021515	0.011139	0.14969	0.029297	0.002289	0.016327	0.055237	-0.070953	0.72433	-0.40482	-0.003357	0.009003
31.07	-0.030365	0.16007	0.049591	0.002289	-0.022888	-0.047607	-0.027924	-0.022888	-0.16266	0.058441	-0.067444	-0.016785	0.24307	-0.16357	0.092773	-0.019989	-0.011902	-0.57404	-0.11093	-0.19318	-0.004425	0.015411	0.16159	0.033417	-0.001373	0.009766	0.010986	-0.087585	0.44678	-0.56091	-0.001373	-0.00061
31.071	-0.035095	0.12009	0.021515	0.005493	-0.006104	-0.20233	-0.031281	-0.003357	-0.027313	0.043793	-0.053711	-0.017853	0.46036	-0.13382	0.085297	-0.006104	0.025024	-0.63324	-0.18936	-0.18387	0.018311	0.029755	0.17364	0.030365	-0.011444	0.006866	0.001678	-0.028687	0.14481	-0.49927	-0.010223	-0.008545
31.072	-0.015564	0.10544	-0.069427	0.015869	-0.041046	-0.28122	-0.047455	0.011444	0.12711	0.044098	-0.047607	-0.017548	0.22812	-0.11169	0.010834	-0.010681	0.059204	-0.67596	-0.22263	-0.10513	0.02243	0.030975	0.20233	0.04837	-0.016632	0.026245	0.014038	0.057526	-0.29144	-0.24963	-0.001678	-0.004272
31.073	-0.005035	0.092926	-0.13199	0.013733	-0.00412	-0.18875	0.000153	0.013123	0.12741	-0.014038	-0.022278	-0.010529	0.085297	0.011749	-0.022278	-0.013733	0.027161	-0.66299	-0.21164	0.060272	0.010986	0.035858	0.17563	0.018768	-0.031738	0.048523	-0.021515	0.027161	-0.47684	-0.066071	-0.005188	0.000763
